<?xml version="1.0" encoding="UTF-8"?><!DOCTYPE svg PUBLIC "-//W3C//DTD SVG 1.1//EN" "http://www.w3.org/Graphics/SVG/1.1/DTD/svg11.dtd"><svg xmlns="http://www.w3.org/2000/svg"><symbol id="icon-arrow-head-down"><path d="M11.2 1L6.278 7 1 1" stroke="#000" stroke-width="2" fill="none" stroke-linecap="round" stroke-linejoin="round"/></symbol><symbol id="icon-bell"><path d="M22 21H0l.002-.511c.01-2.07 1.375-3.842 3.238-4.294v-5.952C3.24 5.698 6.72 2 11 2c4.279 0 7.76 3.698 7.76 8.243v5.952c1.863.453 3.227 2.225 3.238 4.294L22 21zM1 19.982h20c-.219-1.48-1.343-2.667-2.778-2.855l-.42-.054v-6.83c0-3.984-3.052-7.225-6.802-7.225-3.75 0-6.801 3.241-6.801 7.225v6.83l-.421.054c-1.436.187-2.56 1.375-2.779 2.855z"/><path d="M9.835 3H9v-.6C9 1.078 9.897 0 11 0s2 1.077 2 2.4v.59h-.835V2.4c0-.77-.522-1.398-1.165-1.398-.642 0-1.165.628-1.165 1.399V3zm.658 21C8.807 24 7.338 22.44 7 20.291l.838-.222c.257 1.632 1.373 2.817 2.655 2.817 1.309 0 2.43-1.214 2.665-2.886l.842.201C13.69 22.403 12.215 24 10.493 24zM2 17h5v1H2zm8 0h10v1H10z"/></symbol><symbol id="icon-burger"><path d="M2 0h41a2 2 0 0 1 0 4H2a2 2 0 0 1 0-4zm0 9h41a2 2 0 0 1 0 4H2a2 2 0 0 1 0-4zm0 9h41a2 2 0 0 1 0 4H2a2 2 0 0 1 0-4z" fill="#FFF" fill-rule="evenodd"/></symbol><symbol id="icon-facebook"><path d="M1.945 4.067v2.891H0v3.536h1.945V21h3.996V10.494h2.682s.251-1.695.373-3.549h-3.04V4.528c0-.361.436-.847.867-.847H9V0H6.04C1.847 0 1.945 3.539 1.945 4.067z" opacity=".5"/></symbol><symbol id="icon-filter"><path d="M1.5 0h27a1.5 1.5 0 0 1 0 3h-27a1.5 1.5 0 0 1 0-3zm4 7.5h19a1.5 1.5 0 0 1 0 3h-19a1.5 1.5 0 0 1 0-3zm6 7.5h7a1.5 1.5 0 0 1 0 3h-7a1.5 1.5 0 0 1 0-3z" fill-rule="evenodd"/></symbol><symbol id="icon-google-plus"><path d="M19.926 8.73h-9.299v3.052h5.674c-.847 2.653-3.364 4.578-6.338 4.578-3.668 0-6.642-2.928-6.642-6.54s2.974-6.54 6.642-6.54c1.847 0 3.518.743 4.722 1.941l2.25-2.408A10.01 10.01 0 0 0 9.963.01C4.461.01 0 4.402 0 9.82s4.46 9.81 9.963 9.81c4.82 0 9.04-3.37 9.964-7.848V8.73zm6.039-.005h-1.902V6.852h-1.63v1.873H20.53v1.605h1.902v1.873h1.63V10.33h1.903z" fill="#FFF" opacity=".5"/></symbol><symbol id="icon-instagram"><g fill="#FFF" opacity=".5"><path d="M15.929 0H6.07A6.078 6.078 0 0 0 0 6.071v9.858A6.078 6.078 0 0 0 6.071 22h9.858A6.078 6.078 0 0 0 22 15.929V6.07A6.078 6.078 0 0 0 15.929 0zm4.12 15.929a4.124 4.124 0 0 1-4.12 4.12H6.07a4.124 4.124 0 0 1-4.12-4.12V6.07a4.124 4.124 0 0 1 4.12-4.12h9.858a4.124 4.124 0 0 1 4.12 4.12v9.858z"/><path d="M11.5 6A5.506 5.506 0 0 0 6 11.5c0 3.033 2.467 5.5 5.5 5.5s5.5-2.467 5.5-5.5S14.533 6 11.5 6zm0 9C9.57 15 8 13.43 8 11.5S9.57 8 11.5 8 15 9.57 15 11.5 13.43 15 11.5 15zM17 4a1.004 1.004 0 0 0-1 1 1.006 1.006 0 0 0 1 1c.264 0 .52-.107.707-.293a1.004 1.004 0 0 0 0-1.415A1.004 1.004 0 0 0 17 4z"/></g></symbol><symbol id="icon-linkedin"><path d="M4.853 6.708H.668a.336.336 0 0 0-.337.336V20.49c0 .186.15.337.337.337h4.185c.186 0 .337-.15.337-.337V7.044a.336.336 0 0 0-.337-.336zM2.762.023A2.764 2.764 0 0 0 0 2.782a2.764 2.764 0 0 0 2.762 2.76 2.763 2.763 0 0 0 2.76-2.76 2.762 2.762 0 0 0-2.76-2.76zM15.5 6.373c-1.681 0-2.924.723-3.678 1.544v-.873a.336.336 0 0 0-.336-.336H7.477a.336.336 0 0 0-.336.336V20.49c0 .186.15.337.336.337h4.177c.186 0 .336-.15.336-.337v-6.653c0-2.241.61-3.115 2.172-3.115 1.702 0 1.837 1.4 1.837 3.23v6.538c0 .186.15.337.336.337h4.178c.186 0 .337-.15.337-.337v-7.375c0-3.334-.636-6.742-5.35-6.742z" fill="#FFF" opacity=".5"/></symbol><symbol id="icon-logo"><path d="M24 5.4c-.3-.4-.8-.5-1.3-.5h-2.1c-.5 0-.9.2-1.3.5l-1.4 1.4-.4-1.9h-2.2l.5 2.1v10.1h2.3V9.4c0-.2.1-.3.2-.4l2.2-2.1c.1-.1.3-.2.4-.2h1.6c.1 0 .3.1.4.2l.6.6c.1.1.2.2.2.4v1.8h2.2V7.8c0-.5-.2-.9-.6-1.3L24 5.4zm12.9 0c-.3-.4-.8-.5-1.3-.5h-5.2c-.5 0-.9.2-1.3.5l-1.2 1.1c-.4.4-.6.8-.6 1.3v6.3c0 .5.2.9.6 1.3l1.2 1.1c.4.4.8.5 1.3.5h5.3c.5 0 .9-.2 1.3-.5l1.2-1.1c.4-.4.6-.8.6-1.4V7.8c0-.5-.2-.9-.6-1.3l-1.3-1.1zm-.6 8.6c0 .2-.1.3-.2.4l-.5.5c-.1.1-.2.2-.4.2h-4.6c-.1 0-.3-.1-.4-.2l-.5-.5c-.1-.1-.2-.2-.2-.4V7.9c0-.2.1-.3.2-.4l.5-.5c.1-.1.2-.2.4-.2h4.6c.1 0 .3.1.4.2l.5.5c.1.1.2.2.2.4V14zm8.4-14h-2.3v4.9h-2v2h2v7.3c0 .5.2.9.6 1.3l1.1 1c.4.4.8.5 1.3.5h3.5v-2h-3.1c-.1 0-.3-.1-.4-.2l-.5-.5c-.1-.1-.2-.3-.2-.4v-7h4.2v-2h-4.2V0zm15.6 5.4c-.3-.3-.7-.5-1.3-.5h-5.2c-.5 0-.9.2-1.3.5l-1.2 1.1c-.4.4-.6.8-.6 1.3v6.3c0 .5.2.9.6 1.3l1.2 1.1c.4.4.8.5 1.3.5H59c.5 0 .9-.2 1.3-.5l1.2-1.1c.4-.4.6-.8.6-1.4V7.8c0-.5-.2-.9-.6-1.3l-1.2-1.1zm-.5 8.6c0 .2-.1.3-.2.4l-.5.5c-.1.1-.2.2-.4.2h-4.6c-.1 0-.3-.1-.4-.2l-.5-.5c-.1-.1-.2-.2-.2-.4V7.9c0-.2.1-.3.2-.4l.5-.5c.1-.1.2-.2.4-.2h4.6c.1 0 .3.1.4.2l.5.5c.1.1.2.2.2.4V14zm8.4-14h-2.3v4.9h-2v2h2v7.3c0 .5.2.9.6 1.3l1.1 1c.4.4.8.5 1.3.5h3.5v-2h-3.1c-.1 0-.3-.1-.4-.2l-.5-.5c-.1-.1-.2-.3-.2-.4v-7h4.2v-2h-4.2V0zm10.6 14.4l-3.3-9.5h-2.3l4.4 12.4L76 22h2.3l6.1-17.1h-2.3l-3.3 9.5zm17.6-9c-.3-.4-.8-.5-1.3-.5h-3.4c-.5 0-1 .2-1.3.5L89 6.8l-.4-1.9h-2.1l.4 2V22h2.3v-6.7l1.3 1.3c.3.3.8.5 1.3.5h3.4c.5 0 .9-.2 1.3-.5l1.2-1.1c.4-.4.6-.8.6-1.3V7.9c0-.5-.2-1-.6-1.3l-1.3-1.2zm-.6 8.7c0 .2-.1.3-.2.4l-.5.5c-.1.1-.2.2-.4.2h-3.1c-.1 0-.3-.1-.4-.2l-2.1-2c-.1-.1-.2-.2-.2-.4V9.4c0-.2.1-.3.2-.4l2.1-2c.1-.1.2-.2.4-.2h3.1c.1 0 .3.1.4.2l.5.5c.1.1.2.3.2.4v6.2zM112 7.8c0-.5-.2-.9-.6-1.3l-1.2-1.1c-.3-.4-.8-.5-1.3-.5h-5.2c-.5 0-.9.2-1.3.5l-1.2 1.1c-.4.4-.6.8-.6 1.3v6.3c0 .5.2.9.6 1.3l1.2 1.1c.4.4.8.5 1.3.5h5.2c.5 0 .9-.2 1.3-.5l1.7-1.6-1.5-1.4-1.4 1.4c-.1.1-.2.2-.4.2H104c-.1 0-.3-.1-.4-.2l-.5-.5c-.1-.1-.1-.2-.1-.4v-2.5h9V7.8zm-2.2 1.8H103V7.9c0-.1.1-.3.2-.4l.5-.5c.1-.1.2-.2.4-.2h4.6c.1 0 .3.1.4.2l.5.5c.1.1.2.2.2.4v1.7zM10.8.5c-.3-.3-.7-.5-1.2-.5H0v17.1h2.4V9.8h7.2c.5 0 .9-.2 1.3-.5l1.6-1.5c.3-.3.5-.7.5-1.3V3.3c0-.5-.2-.9-.6-1.3L10.8.5zm-.2 5.7c0 .2-.1.3-.2.4l-.9.8c-.1.1-.2.2-.3.2H2.4V2.3h6.8c.2 0 .3.1.4.2l.9.8c.1.1.2.2.2.4l-.1 2.5z"/></symbol><symbol id="icon-minus-circle"><g transform="translate(1 1)" fill="none" fill-rule="evenodd"><circle stroke="#EB0929" stroke-width=".7" cx="24" cy="24" r="24"/><path d="M15.636 23.907c-.354 0-.636-.206-.636-.457 0-.25.282-.45.636-.45h16.719c.354 0 .645.2.645.45 0 .251-.291.457-.645.457H15.636z" fill="#EB0929" fill-rule="nonzero"/></g></symbol><symbol id="icon-plus-circle"><g transform="translate(1 1)" fill="none" fill-rule="evenodd"><circle stroke="#43BA80" cx="24" cy="24" r="24"/><path d="M15.636 24.64a.64.64 0 0 1-.636-.645c0-.354.282-.636.636-.636h7.718v-7.714a.64.64 0 1 1 1.282 0v7.714h7.719a.64.64 0 1 1 0 1.282h-7.718v7.714a.64.64 0 1 1-1.282 0V24.64h-7.719z" fill="#43BA80" fill-rule="nonzero"/></g></symbol><symbol id="icon-plus"><path d="M1.202 18.21C.532 18.21 0 17.66 0 16.991s.532-1.201 1.202-1.201H15.78V1.219C15.781.549 16.33 0 17 0c.67 0 1.203.55 1.203 1.219V15.79H32.78c.67 0 1.219.532 1.219 1.201 0 .67-.55 1.219-1.22 1.219H18.204v14.571A1.21 1.21 0 0 1 17.002 34c-.67 0-1.22-.55-1.22-1.219V18.21H1.202z" fill="#43BA80"/></symbol><symbol id="icon-prototype" viewBox="0 0 112 22"><path fill="##040404" d="M24 5.4c-.3-.4-.8-.5-1.3-.5h-2.1c-.5 0-.9.2-1.3.5l-1.4 1.4-.4-1.9h-2.2l.5 2.1v10.1h2.3V9.4c0-.2.1-.3.2-.4l2.2-2.1c.1-.1.3-.2.4-.2h1.6c.1 0 .3.1.4.2l.6.6c.1.1.2.2.2.4v1.8h2.2V7.8c0-.5-.2-.9-.6-1.3L24 5.4zm12.9 0c-.3-.4-.8-.5-1.3-.5h-5.2c-.5 0-.9.2-1.3.5l-1.2 1.1c-.4.4-.6.8-.6 1.3v6.3c0 .5.2.9.6 1.3l1.2 1.1c.4.4.8.5 1.3.5h5.3c.5 0 .9-.2 1.3-.5l1.2-1.1c.4-.4.6-.8.6-1.4V7.8c0-.5-.2-.9-.6-1.3l-1.3-1.1zm-.6 8.6c0 .2-.1.3-.2.4l-.5.5c-.1.1-.2.2-.4.2h-4.6c-.1 0-.3-.1-.4-.2l-.5-.5c-.1-.1-.2-.2-.2-.4V7.9c0-.2.1-.3.2-.4l.5-.5c.1-.1.2-.2.4-.2h4.6c.1 0 .3.1.4.2l.5.5c.1.1.2.2.2.4V14zm8.4-14h-2.3v4.9h-2v2h2v7.3c0 .5.2.9.6 1.3l1.1 1c.4.4.8.5 1.3.5h3.5v-2h-3.1c-.1 0-.3-.1-.4-.2l-.5-.5c-.1-.1-.2-.3-.2-.4v-7h4.2v-2h-4.2V0zm15.6 5.4c-.3-.3-.7-.5-1.3-.5h-5.2c-.5 0-.9.2-1.3.5l-1.2 1.1c-.4.4-.6.8-.6 1.3v6.3c0 .5.2.9.6 1.3l1.2 1.1c.4.4.8.5 1.3.5H59c.5 0 .9-.2 1.3-.5l1.2-1.1c.4-.4.6-.8.6-1.4V7.8c0-.5-.2-.9-.6-1.3l-1.2-1.1zm-.5 8.6c0 .2-.1.3-.2.4l-.5.5c-.1.1-.2.2-.4.2h-4.6c-.1 0-.3-.1-.4-.2l-.5-.5c-.1-.1-.2-.2-.2-.4V7.9c0-.2.1-.3.2-.4l.5-.5c.1-.1.2-.2.4-.2h4.6c.1 0 .3.1.4.2l.5.5c.1.1.2.2.2.4V14zm8.4-14h-2.3v4.9h-2v2h2v7.3c0 .5.2.9.6 1.3l1.1 1c.4.4.8.5 1.3.5h3.5v-2h-3.1c-.1 0-.3-.1-.4-.2l-.5-.5c-.1-.1-.2-.3-.2-.4v-7h4.2v-2h-4.2V0zm10.6 14.4l-3.3-9.5h-2.3l4.4 12.4L76 22h2.3l6.1-17.1h-2.3zm17.6-9c-.3-.4-.8-.5-1.3-.5h-3.4c-.5 0-1 .2-1.3.5L89 6.8l-.4-1.9h-2.1l.4 2V22h2.3v-6.7l1.3 1.3c.3.3.8.5 1.3.5h3.4c.5 0 .9-.2 1.3-.5l1.2-1.1c.4-.4.6-.8.6-1.3V7.9c0-.5-.2-1-.6-1.3l-1.3-1.2zm-.6 8.7c0 .2-.1.3-.2.4l-.5.5c-.1.1-.2.2-.4.2h-3.1c-.1 0-.3-.1-.4-.2l-2.1-2c-.1-.1-.2-.2-.2-.4V9.4c0-.2.1-.3.2-.4l2.1-2c.1-.1.2-.2.4-.2h3.1c.1 0 .3.1.4.2l.5.5c.1.1.2.3.2.4v6.2zM112 7.8c0-.5-.2-.9-.6-1.3l-1.2-1.1c-.3-.4-.8-.5-1.3-.5h-5.2c-.5 0-.9.2-1.3.5l-1.2 1.1c-.4.4-.6.8-.6 1.3v6.3c0 .5.2.9.6 1.3l1.2 1.1c.4.4.8.5 1.3.5h5.2c.5 0 .9-.2 1.3-.5l1.7-1.6-1.5-1.4-1.4 1.4c-.1.1-.2.2-.4.2H104c-.1 0-.3-.1-.4-.2l-.5-.5c-.1-.1-.1-.2-.1-.4v-2.5h9V7.8zm-2.2 1.8H103V7.9c0-.1.1-.3.2-.4l.5-.5c.1-.1.2-.2.4-.2h4.6c.1 0 .3.1.4.2l.5.5c.1.1.2.2.2.4v1.7zM10.8.5c-.3-.3-.7-.5-1.2-.5H0v17.1h2.4V9.8h7.2c.5 0 .9-.2 1.3-.5l1.6-1.5c.3-.3.5-.7.5-1.3V3.3c0-.5-.2-.9-.6-1.3L10.8.5zm-.2 5.7c0 .2-.1.3-.2.4l-.9.8c-.1.1-.2.2-.3.2H2.4V2.3h6.8c.2 0 .3.1.4.2l.9.8c.1.1.2.2.2.4l-.1 2.5z"/></symbol><symbol id="icon-twitter"><path d="M22.545 2.179a9.25 9.25 0 0 1-2.655.727A4.637 4.637 0 0 0 21.923.354a9.334 9.334 0 0 1-2.94 1.12A4.616 4.616 0 0 0 15.609.017a4.621 4.621 0 0 0-4.505 5.668A13.138 13.138 0 0 1 1.57.86a4.575 4.575 0 0 0-.626 2.32c0 1.602.817 3.015 2.057 3.842a4.632 4.632 0 0 1-2.095-.58v.059a4.623 4.623 0 0 0 3.71 4.526 4.693 4.693 0 0 1-1.219.162c-.299 0-.587-.03-.87-.086a4.626 4.626 0 0 0 4.319 3.207 9.29 9.29 0 0 1-5.744 1.973 9.81 9.81 0 0 1-1.103-.064 13.09 13.09 0 0 0 7.09 2.077c8.507 0 13.158-7.034 13.158-13.134l-.016-.598a9.227 9.227 0 0 0 2.313-2.385z" opacity=".5"/></symbol><symbol id="icon-wreath" viewBox="0 0 95 93"><path d="M85.1 57.6c1.2-1.3 2.8-2.2 4.6-2.5-.2 1.8-1 3.5-2.3 4.7-1.6 1.6-3.1 2.4-4.6 2.5 0-1.5.8-3 2.3-4.7zm-2.7 12.5c-1.6 1.6-2.9 2.2-4.2 1.8.3-1.9 1.1-3.7 2.7-5.3 1.3-1.3 2.8-1.9 4.2-1.8-.5 2-1.4 3.9-2.7 5.3zM73.7 74c.6-1.5 1.9-2.8 4-3.7 1.6-.7 3.4-.9 5.1-.4-.9 1.7-2.3 3-4 3.7-2 .9-3.7 1-5.1.4zm-6.8 8.7c.8-1.7 2.2-2.8 4.3-3.3 1.7-.4 3.4 0 4.8 1.1-1.1 1.7-2.6 2.9-4.3 3.3-2.1.5-3.7.1-4.8-1.1zM57.8 86c1-1.5 2.6-2.2 4.6-2 1.7.1 3.3 1.1 4.5 2.7-1.3 1.4-2.9 2.2-4.6 2-2.1-.1-3.6-1-4.5-2.7zm-4.6-1.2c1.3-.9 2.9-1.1 5-.4 1.7.6 3.2 1.9 4.2 3.6-1.5.8-3.3 1-5 .4-2.1-.7-3.5-2-4.2-3.6zm4.6-8c-.3 1.8-1.1 3.5-2.3 4.8-1.6 1.6-3.1 2.4-4.5 2.4 0-1.6.7-3.1 2.3-4.8 1.1-1.3 2.7-2.2 4.5-2.4zm6.8-2.4c.1 1.4-.4 3-1.7 4.3-1.5 1.6-3.2 2.5-5 2.8-.4-1.3.1-2.7 1.7-4.4 1.2-1.2 3-2.2 5-2.7zm6.5-4.8c.5 1.8.4 3.7-.2 5.4-.9 2.2-2 3.5-3.5 4.2-.7-1.4-.6-3.2.2-5.4.7-1.8 1.9-3.3 3.5-4.2zm1.3-4.8c1.1 1.4 1.5 3.2 1.2 5-.4 2.2-1.5 3.7-3.1 4.6-1.2-1.2-1.6-2.8-1.2-5 .4-1.9 1.5-3.5 3.1-4.6zm8.1-2.5c.2 2.2-.4 3.8-1.8 4.9-1.6-1-2.5-2.5-2.7-4.7-.2-1.8.5-3.5 1.8-4.9 1.5 1.2 2.5 2.9 2.7 4.7zm-.2-31.4c1.6 1.6 2.4 3.3 2.6 5.1-1.3.2-2.7-.4-4.3-2.1-1.3-1.4-2.2-3.2-2.6-5.1 1.5 0 3 .7 4.3 2.1zm-4.9-6.1c1.6 1 2.5 2.2 2.9 3.7-1.1.5-2.4.3-4-.7-1.3-.8-2.3-2.1-2.9-3.6 1.3-.4 2.7-.2 4 .6zm-3.6-5.3c2.1.7 3.4 1.9 4.2 3.5-1.2 1-2.8 1.2-4.9.6-1.7-.6-3.2-1.9-4.2-3.5 1.5-.9 3.2-1.1 4.9-.6zm-9.5-5.2c1.3-1.5 2.9-2.3 4.6-2.3 2.1.1 3.5.9 4.5 2.5-1 1.5-2.5 2.3-4.6 2.3-1.7-.1-3.3-1-4.5-2.5zm-4.5-7c1.3-.2 2.8.3 4.1 1.6 1.6 1.6 2.4 3.4 2.7 5.4-1.2.5-2.5 0-4.1-1.6-1.3-1.4-2.2-3.3-2.7-5.4zm14.9.5c1 1.6 1.2 3 .9 4.2-1.3-.4-2.5-1.3-3.5-3-.8-1.4-1.1-2.9-.9-4.2 1.4.6 2.6 1.6 3.5 3zm5.1 6.1c.8 2.2.7 3.9-.1 5.3-1.5-.8-2.7-2.1-3.5-4.3-.6-1.7-.6-3.6.1-5.3 1.6 1 2.8 2.5 3.5 4.3zm7.3 7.6c.2 2.2-.4 3.8-1.7 4.9-1.6-1-2.5-2.5-2.8-4.7-.2-1.8.4-3.5 1.7-4.9 1.5 1.2 2.6 2.9 2.8 4.7zm-6.8 16.9c1.8.4 3.4 1.3 4.7 2.6 1.6 1.6 2.2 3.2 2.1 4.6-1.6-.1-3.2-1-4.7-2.6-1.3-1.4-2-3-2.1-4.6zm.4 17.2c-.6-1.7-.5-3.6.2-5.2 1.6 1 2.8 2.5 3.5 4.3.7 2.2.6 3.9-.2 5.2-1.6-.7-2.8-2.1-3.5-4.3zm-.3-12.4c1.4.6 2.6 1.6 3.5 3 1 1.6 1.2 3 .8 4.2-1.3-.4-2.5-1.3-3.5-3-.8-1.4-1.1-2.8-.8-4.2zM88.3 24c1.1 1.4 1.6 3.2 1.3 5-.4 2.2-1.4 3.7-3 4.6-1.2-1.2-1.7-2.8-1.3-5 .3-1.8 1.4-3.4 3-4.6zm.8 17.3c-.8 2.2-2 3.6-3.5 4.2-.7-1.4-.7-3.2.2-5.4.7-1.8 1.9-3.3 3.5-4.2.5 1.7.5 3.6-.2 5.4zm1.2 6.2c-1.5 1.6-3.2 2.6-5.1 2.9-.4-1.3.1-2.7 1.6-4.3 1.3-1.4 3.1-2.3 5.1-2.9.2 1.4-.3 3-1.6 4.3zM37.2 76.8c1.7.3 3.3 1.1 4.5 2.4 1.6 1.6 2.3 3.2 2.3 4.8-1.5 0-3-.8-4.5-2.4-1.2-1.3-2-3-2.3-4.8zM35 88c1-1.7 2.4-3 4.2-3.6 2.1-.7 3.7-.6 5 .4-.7 1.7-2.1 2.9-4.2 3.6-1.7.6-3.5.5-5-.4zm-9.2-1.3c1.2-1.6 2.8-2.6 4.5-2.7 2.1-.2 3.6.6 4.6 2-1 1.6-2.4 2.6-4.5 2.7-1.7.2-3.3-.6-4.6-2zM19 80.4c1.4-1.1 3.1-1.5 4.8-1.1 2.1.5 3.5 1.6 4.3 3.3-1.2 1.2-2.7 1.6-4.8 1.1-1.7-.4-3.2-1.6-4.3-3.3zm-6.8-10.5c1.7-.5 3.5-.4 5.1.4 2.1.9 3.4 2.2 4 3.7-1.4.6-3.1.6-5.1-.4-1.7-.8-3.1-2.1-4-3.7zm-2.3-5.1c1.4-.1 2.9.5 4.2 1.8 1.6 1.6 2.4 3.4 2.7 5.3-1.2.3-2.6-.2-4.2-1.8-1.3-1.4-2.2-3.3-2.7-5.3zm-4.6-9.6c1.7.3 3.3 1.2 4.6 2.5 1.6 1.6 2.3 3.2 2.3 4.7-1.5-.1-3-.8-4.6-2.5-1.2-1.3-2-2.9-2.3-4.7zm5.1-9.1c1.5 1.6 2 3.1 1.6 4.3-1.9-.3-3.6-1.2-5.1-2.9-1.3-1.4-1.8-2.9-1.6-4.3 2.1.5 3.9 1.5 5.1 2.9zm-1.2-5.9c.8 2.2.9 3.9.2 5.4-1.5-.7-2.7-2.1-3.5-4.2-.7-1.7-.7-3.6-.2-5.4 1.6 1 2.8 2.4 3.5 4.2zM12 28.6c.4 2.2-.1 3.8-1.3 5-1.6-.9-2.6-2.4-3-4.6-.3-1.8.2-3.6 1.3-5 1.6 1.2 2.7 2.8 3 4.6zm.7-11.8c1.2 1.4 1.9 3.1 1.7 4.9-.2 2.2-1.2 3.7-2.8 4.7-1.3-1.1-1.9-2.7-1.7-4.9.2-1.8 1.3-3.5 2.8-4.7zm8.6 7.4c-.6 1.5-1.6 2.9-2.9 3.7-1.6 1-2.9 1.2-4 .7.4-1.5 1.3-2.7 2.9-3.7 1.3-.9 2.7-1.1 4-.7zm-.6-14.6c.7 1.6.8 3.4.1 5.3-.8 2.2-1.9 3.6-3.5 4.3-.8-1.4-.9-3.1-.1-5.3.7-1.8 1.9-3.3 3.5-4.3zm7.4 10.5c-1 1.7-2.5 3-4.2 3.5-2.1.7-3.7.4-4.9-.6.8-1.7 2.1-2.9 4.2-3.5 1.7-.5 3.4-.3 4.9.6zm0-15.3c.2 1.4-.1 2.9-.9 4.2-1 1.6-2.1 2.6-3.5 3-.4-1.2-.1-2.6.9-4.2.8-1.4 2-2.4 3.5-3zM35 7.3c-.5 2.1-1.4 4-2.7 5.4-1.6 1.6-2.9 2.1-4.1 1.6.3-2 1.2-3.8 2.7-5.4C32.2 7.5 33.6 7 35 7.3zm-4.6 9.5c-2.1.1-3.6-.7-4.6-2.3 1-1.6 2.5-2.5 4.5-2.5 1.7-.1 3.3.8 4.6 2.3-1.2 1.5-2.7 2.4-4.5 2.5zM12.2 36c.2-1.8 1-3.5 2.6-5.1 1.3-1.4 2.8-2 4.3-2.1-.4 1.9-1.3 3.7-2.6 5.1-1.6 1.6-3 2.3-4.3 2.1zm3.9 14.4c.7 1.6.8 3.4.2 5.2-.7 2.2-1.9 3.6-3.5 4.4-.8-1.3-1-3.1-.2-5.2.7-1.9 1.9-3.4 3.5-4.4zM12 41c1.3-1.3 2.9-2.2 4.7-2.6-.1 1.6-.8 3.2-2.1 4.6-1.6 1.6-3.1 2.5-4.7 2.6-.1-1.5.5-3 2.1-4.6zm2.4 2.2c.2 1.4 0 2.9-.8 4.2-1 1.6-2.1 2.6-3.5 3-.4-1.2-.1-2.6.8-4.2.8-1.4 2-2.4 3.5-3zm6.9 19.3c-.2 2.2-1.1 3.7-2.7 4.7-1.4-1.1-2-2.7-1.8-4.9.2-1.8 1.2-3.5 2.7-4.7 1.2 1.4 1.9 3.1 1.8 4.9zm4.4 6.8c.4 2.2 0 3.8-1.2 5-1.6-.9-2.7-2.4-3.1-4.6-.4-1.8.1-3.6 1.2-5 1.6 1.2 2.7 2.8 3.1 4.6zm4 4.5c.9 2.2.9 3.9.2 5.4-1.5-.7-2.7-2-3.5-4.2-.7-1.7-.8-3.6-.2-5.4 1.6.9 2.8 2.4 3.5 4.2zm5.8 3.4c1.5 1.6 2 3.1 1.7 4.4-1.8-.3-3.5-1.2-5-2.8-1.3-1.4-1.8-2.9-1.6-4.3 1.8.4 3.6 1.4 4.9 2.7zm53.6-25c.5-.5.9-1.2 1.3-1.9 1.5-2.6 1.8-5.7 1.1-8.3-.7.1-1.3.3-2 .6.4-.7.7-1.4.9-2.2 1-2.9.7-5.9-.6-8.3-.6.3-1.2.6-1.8 1 .2-.8.4-1.5.5-2.3.4-3.1-.5-6-2.2-8-.6.4-1.1.9-1.6 1.4.1-.7.1-1.5 0-2.4-.2-3.1-1.7-5.7-3.7-7.3-.5.5-.9 1.1-1.3 1.7-.1-.7-.2-1.5-.4-2.3-.8-3-2.8-5.2-5.1-6.3-.4.6-.7 1.3-.9 2-.2-.8-.5-1.5-.9-2.2-1.4-2.7-3.7-4.5-6.2-5-.5 1.4-.7 2.9-.5 4.5-.3-.3-.7-.5-1-.7-2.5-1.6-5.3-1.9-7.8-1 .5 2.9 2.1 5.4 4.5 6.9.4.2.7.4 1.1.6-1.3.6-2.5 1.4-3.5 2.5 1.5 1.8 3.5 3 5.7 3.4 1.1 2.1 2.8 3.7 4.9 4.5.6 2.2 1.9 4.2 3.9 5.5.1 2.3 1.1 4.5 2.7 6.3-.3 2.4.2 4.7 1.4 6.8-.8 2.2-.8 4.7 0 6.9-1.2 2-1.7 4.4-1.3 6.8-1.6 1.7-2.5 3.9-2.6 6.3-1.9 1.3-3.2 3.3-3.8 5.6-2.1.9-3.8 2.5-4.8 4.6-2.2.4-4.2 1.6-5.6 3.4-2.5-.2-5.2.9-7.2 3-1.3 1.4-2.1 2.8-2.4 4-.6 2.3-3.7 2.3-4.3 0-.4-1.3-1.1-2.6-2.4-4-2-2.2-4.7-3.2-7.2-3-1.4-1.8-3.4-3-5.6-3.4-1-2.1-2.8-3.7-4.8-4.6-.6-2.3-2-4.3-3.8-5.6-.1-2.4-1.1-4.6-2.6-6.3.3-2.4-.2-4.7-1.3-6.8.8-2.3.8-4.8 0-6.9 1.2-2 1.7-4.4 1.4-6.8 1.6-1.7 2.5-3.9 2.7-6.3 1.9-1.3 3.2-3.3 3.9-5.5 2.1-.9 3.8-2.5 4.9-4.5 2.2-.4 4.3-1.6 5.7-3.4-1-1.1-2.1-2-3.5-2.5.4-.2.7-.4 1.1-.6 2.4-1.5 4-4 4.5-6.9-2.4-.8-5.3-.6-7.8 1-.3.2-.7.5-1 .7.2-1.5 0-3-.5-4.4-2.5.6-4.9 2.3-6.2 5-.4.8-.7 1.5-.9 2.2-.2-.7-.5-1.4-.9-2C19 8.8 17 11.1 16.2 14c-.2.8-.4 1.6-.4 2.3-.4-.6-.8-1.2-1.3-1.7-2.1 1.6-3.5 4.3-3.7 7.3-.1.9-.1 1.7 0 2.4-.5-.5-1-1-1.6-1.4-1.7 2.1-2.6 5-2.2 8 .1.9.3 1.6.5 2.3-.6-.4-1.2-.8-1.8-1-1.3 2.4-1.6 5.4-.6 8.3.3.8.6 1.5.9 2.2-.6-.3-1.3-.5-2-.6-.8 2.6-.4 5.7 1.1 8.3.4.7.9 1.4 1.3 1.9-.7-.1-1.4-.2-2.1-.1-.2 2.9.8 5.8 2.7 7.8.6.6 1.1 1.1 1.7 1.6-.7 0-1.4.1-2 .3.4 2.9 1.9 5.5 4.2 7.1.7.5 1.3.9 2 1.1-.7.2-1.3.4-1.9.8.9 2.7 2.9 4.9 5.5 6 .8.3 1.5.5 2.1.7-.6.3-1.2.7-1.7 1.2 1.4 2.5 3.8 4.1 6.5 4.6.8.1 1.5.2 2.2.2-.5.5-1 1-1.5 1.6 1.9 2.1 4.6 3.2 7.3 3 .8 0 1.6-.2 2.2-.3-.4.6-.8 1.2-1.1 1.8 2.1 1.5 4.9 2.1 7.7 1.3 1.3-.4 2.4-.9 3.3-1.5 2.7-2 6.4-2 9.1 0 .8.6 1.9 1.1 3.3 1.5 2.8.8 5.6.2 7.7-1.3-.3-.7-.7-1.3-1.1-1.8.7.2 1.4.3 2.2.3 2.7.2 5.4-.9 7.3-3-.4-.6-.9-1.1-1.5-1.6.7 0 1.4 0 2.2-.2 2.7-.5 5.1-2.1 6.5-4.6-.5-.5-1.1-.9-1.7-1.2.7-.1 1.4-.4 2.1-.7 2.6-1.1 4.6-3.2 5.5-6-.6-.3-1.3-.6-1.9-.8.6-.3 1.3-.7 2-1.1 2.3-1.6 3.8-4.2 4.2-7.1-.7-.2-1.4-.3-2-.3.6-.4 1.1-.9 1.7-1.6 1.9-2.1 2.9-4.9 2.7-7.8-1.3-.2-2-.1-2.7 0z" fill="#231f20"/></symbol></svg>