<svg xmlns="http://www.w3.org/2000/svg" viewBox="0 0 95 93"><path d="M85.1 57.6c1.2-1.3 2.8-2.2 4.6-2.5-.2 1.8-1 3.5-2.3 4.7-1.6 1.6-3.1 2.4-4.6 2.5 0-1.5.8-3 2.3-4.7zm-2.7 12.5c-1.6 1.6-2.9 2.2-4.2 1.8.3-1.9 1.1-3.7 2.7-5.3 1.3-1.3 2.8-1.9 4.2-1.8-.5 2-1.4 3.9-2.7 5.3zM73.7 74c.6-1.5 1.9-2.8 4-3.7 1.6-.7 3.4-.9 5.1-.4-.9 1.7-2.3 3-4 3.7-2 .9-3.7 1-5.1.4zm-6.8 8.7c.8-1.7 2.2-2.8 4.3-3.3 1.7-.4 3.4 0 4.8 1.1-1.1 1.7-2.6 2.9-4.3 3.3-2.1.5-3.7.1-4.8-1.1zM57.8 86c1-1.5 2.6-2.2 4.6-2 1.7.1 3.3 1.1 4.5 2.7-1.3 1.4-2.9 2.2-4.6 2-2.1-.1-3.6-1-4.5-2.7zm-4.6-1.2c1.3-.9 2.9-1.1 5-.4 1.7.6 3.2 1.9 4.2 3.6-1.5.8-3.3 1-5 .4-2.1-.7-3.5-2-4.2-3.6zm4.6-8c-.3 1.8-1.1 3.5-2.3 4.8-1.6 1.6-3.1 2.4-4.5 2.4 0-1.6.7-3.1 2.3-4.8 1.1-1.3 2.7-2.2 4.5-2.4zm6.8-2.4c.1 1.4-.4 3-1.7 4.3-1.5 1.6-3.2 2.5-5 2.8-.4-1.3.1-2.7 1.7-4.4 1.2-1.2 3-2.2 5-2.7zm6.5-4.8c.5 1.8.4 3.7-.2 5.4-.9 2.2-2 3.5-3.5 4.2-.7-1.4-.6-3.2.2-5.4.7-1.8 1.9-3.3 3.5-4.2zm1.3-4.8c1.1 1.4 1.5 3.2 1.2 5-.4 2.2-1.5 3.7-3.1 4.6-1.2-1.2-1.6-2.8-1.2-5 .4-1.9 1.5-3.5 3.1-4.6zm8.1-2.5c.2 2.2-.4 3.8-1.8 4.9-1.6-1-2.5-2.5-2.7-4.7-.2-1.8.5-3.5 1.8-4.9 1.5 1.2 2.5 2.9 2.7 4.7zm-.2-31.4c1.6 1.6 2.4 3.3 2.6 5.1-1.3.2-2.7-.4-4.3-2.1-1.3-1.4-2.2-3.2-2.6-5.1 1.5 0 3 .7 4.3 2.1zm-4.9-6.1c1.6 1 2.5 2.2 2.9 3.7-1.1.5-2.4.3-4-.7-1.3-.8-2.3-2.1-2.9-3.6 1.3-.4 2.7-.2 4 .6zm-3.6-5.3c2.1.7 3.4 1.9 4.2 3.5-1.2 1-2.8 1.2-4.9.6-1.7-.6-3.2-1.9-4.2-3.5 1.5-.9 3.2-1.1 4.9-.6zm-9.5-5.2c1.3-1.5 2.9-2.3 4.6-2.3 2.1.1 3.5.9 4.5 2.5-1 1.5-2.5 2.3-4.6 2.3-1.7-.1-3.3-1-4.5-2.5zm-4.5-7c1.3-.2 2.8.3 4.1 1.6 1.6 1.6 2.4 3.4 2.7 5.4-1.2.5-2.5 0-4.1-1.6-1.3-1.4-2.2-3.3-2.7-5.4zm14.9.5c1 1.6 1.2 3 .9 4.2-1.3-.4-2.5-1.3-3.5-3-.8-1.4-1.1-2.9-.9-4.2 1.4.6 2.6 1.6 3.5 3zm5.1 6.1c.8 2.2.7 3.9-.1 5.3-1.5-.8-2.7-2.1-3.5-4.3-.6-1.7-.6-3.6.1-5.3 1.6 1 2.8 2.5 3.5 4.3zm7.3 7.6c.2 2.2-.4 3.8-1.7 4.9-1.6-1-2.5-2.5-2.8-4.7-.2-1.8.4-3.5 1.7-4.9 1.5 1.2 2.6 2.9 2.8 4.7zm-6.8 16.9c1.8.4 3.4 1.3 4.7 2.6 1.6 1.6 2.2 3.2 2.1 4.6-1.6-.1-3.2-1-4.7-2.6-1.3-1.4-2-3-2.1-4.6zm.4 17.2c-.6-1.7-.5-3.6.2-5.2 1.6 1 2.8 2.5 3.5 4.3.7 2.2.6 3.9-.2 5.2-1.6-.7-2.8-2.1-3.5-4.3zm-.3-12.4c1.4.6 2.6 1.6 3.5 3 1 1.6 1.2 3 .8 4.2-1.3-.4-2.5-1.3-3.5-3-.8-1.4-1.1-2.8-.8-4.2zM88.3 24c1.1 1.4 1.6 3.2 1.3 5-.4 2.2-1.4 3.7-3 4.6-1.2-1.2-1.7-2.8-1.3-5 .3-1.8 1.4-3.4 3-4.6zm.8 17.3c-.8 2.2-2 3.6-3.5 4.2-.7-1.4-.7-3.2.2-5.4.7-1.8 1.9-3.3 3.5-4.2.5 1.7.5 3.6-.2 5.4zm1.2 6.2c-1.5 1.6-3.2 2.6-5.1 2.9-.4-1.3.1-2.7 1.6-4.3 1.3-1.4 3.1-2.3 5.1-2.9.2 1.4-.3 3-1.6 4.3zM37.2 76.8c1.7.3 3.3 1.1 4.5 2.4 1.6 1.6 2.3 3.2 2.3 4.8-1.5 0-3-.8-4.5-2.4-1.2-1.3-2-3-2.3-4.8zM35 88c1-1.7 2.4-3 4.2-3.6 2.1-.7 3.7-.6 5 .4-.7 1.7-2.1 2.9-4.2 3.6-1.7.6-3.5.5-5-.4zm-9.2-1.3c1.2-1.6 2.8-2.6 4.5-2.7 2.1-.2 3.6.6 4.6 2-1 1.6-2.4 2.6-4.5 2.7-1.7.2-3.3-.6-4.6-2zM19 80.4c1.4-1.1 3.1-1.5 4.8-1.1 2.1.5 3.5 1.6 4.3 3.3-1.2 1.2-2.7 1.6-4.8 1.1-1.7-.4-3.2-1.6-4.3-3.3zm-6.8-10.5c1.7-.5 3.5-.4 5.1.4 2.1.9 3.4 2.2 4 3.7-1.4.6-3.1.6-5.1-.4-1.7-.8-3.1-2.1-4-3.7zm-2.3-5.1c1.4-.1 2.9.5 4.2 1.8 1.6 1.6 2.4 3.4 2.7 5.3-1.2.3-2.6-.2-4.2-1.8-1.3-1.4-2.2-3.3-2.7-5.3zm-4.6-9.6c1.7.3 3.3 1.2 4.6 2.5 1.6 1.6 2.3 3.2 2.3 4.7-1.5-.1-3-.8-4.6-2.5-1.2-1.3-2-2.9-2.3-4.7zm5.1-9.1c1.5 1.6 2 3.1 1.6 4.3-1.9-.3-3.6-1.2-5.1-2.9-1.3-1.4-1.8-2.9-1.6-4.3 2.1.5 3.9 1.5 5.1 2.9zm-1.2-5.9c.8 2.2.9 3.9.2 5.4-1.5-.7-2.7-2.1-3.5-4.2-.7-1.7-.7-3.6-.2-5.4 1.6 1 2.8 2.4 3.5 4.2zM12 28.6c.4 2.2-.1 3.8-1.3 5-1.6-.9-2.6-2.4-3-4.6-.3-1.8.2-3.6 1.3-5 1.6 1.2 2.7 2.8 3 4.6zm.7-11.8c1.2 1.4 1.9 3.1 1.7 4.9-.2 2.2-1.2 3.7-2.8 4.7-1.3-1.1-1.9-2.7-1.7-4.9.2-1.8 1.3-3.5 2.8-4.7zm8.6 7.4c-.6 1.5-1.6 2.9-2.9 3.7-1.6 1-2.9 1.2-4 .7.4-1.5 1.3-2.7 2.9-3.7 1.3-.9 2.7-1.1 4-.7zm-.6-14.6c.7 1.6.8 3.4.1 5.3-.8 2.2-1.9 3.6-3.5 4.3-.8-1.4-.9-3.1-.1-5.3.7-1.8 1.9-3.3 3.5-4.3zm7.4 10.5c-1 1.7-2.5 3-4.2 3.5-2.1.7-3.7.4-4.9-.6.8-1.7 2.1-2.9 4.2-3.5 1.7-.5 3.4-.3 4.9.6zm0-15.3c.2 1.4-.1 2.9-.9 4.2-1 1.6-2.1 2.6-3.5 3-.4-1.2-.1-2.6.9-4.2.8-1.4 2-2.4 3.5-3zM35 7.3c-.5 2.1-1.4 4-2.7 5.4-1.6 1.6-2.9 2.1-4.1 1.6.3-2 1.2-3.8 2.7-5.4C32.2 7.5 33.6 7 35 7.3zm-4.6 9.5c-2.1.1-3.6-.7-4.6-2.3 1-1.6 2.5-2.5 4.5-2.5 1.7-.1 3.3.8 4.6 2.3-1.2 1.5-2.7 2.4-4.5 2.5zM12.2 36c.2-1.8 1-3.5 2.6-5.1 1.3-1.4 2.8-2 4.3-2.1-.4 1.9-1.3 3.7-2.6 5.1-1.6 1.6-3 2.3-4.3 2.1zm3.9 14.4c.7 1.6.8 3.4.2 5.2-.7 2.2-1.9 3.6-3.5 4.4-.8-1.3-1-3.1-.2-5.2.7-1.9 1.9-3.4 3.5-4.4zM12 41c1.3-1.3 2.9-2.2 4.7-2.6-.1 1.6-.8 3.2-2.1 4.6-1.6 1.6-3.1 2.5-4.7 2.6-.1-1.5.5-3 2.1-4.6zm2.4 2.2c.2 1.4 0 2.9-.8 4.2-1 1.6-2.1 2.6-3.5 3-.4-1.2-.1-2.6.8-4.2.8-1.4 2-2.4 3.5-3zm6.9 19.3c-.2 2.2-1.1 3.7-2.7 4.7-1.4-1.1-2-2.7-1.8-4.9.2-1.8 1.2-3.5 2.7-4.7 1.2 1.4 1.9 3.1 1.8 4.9zm4.4 6.8c.4 2.2 0 3.8-1.2 5-1.6-.9-2.7-2.4-3.1-4.6-.4-1.8.1-3.6 1.2-5 1.6 1.2 2.7 2.8 3.1 4.6zm4 4.5c.9 2.2.9 3.9.2 5.4-1.5-.7-2.7-2-3.5-4.2-.7-1.7-.8-3.6-.2-5.4 1.6.9 2.8 2.4 3.5 4.2zm5.8 3.4c1.5 1.6 2 3.1 1.7 4.4-1.8-.3-3.5-1.2-5-2.8-1.3-1.4-1.8-2.9-1.6-4.3 1.8.4 3.6 1.4 4.9 2.7zm53.6-25c.5-.5.9-1.2 1.3-1.9 1.5-2.6 1.8-5.7 1.1-8.3-.7.1-1.3.3-2 .6.4-.7.7-1.4.9-2.2 1-2.9.7-5.9-.6-8.3-.6.3-1.2.6-1.8 1 .2-.8.4-1.5.5-2.3.4-3.1-.5-6-2.2-8-.6.4-1.1.9-1.6 1.4.1-.7.1-1.5 0-2.4-.2-3.1-1.7-5.7-3.7-7.3-.5.5-.9 1.1-1.3 1.7-.1-.7-.2-1.5-.4-2.3-.8-3-2.8-5.2-5.1-6.3-.4.6-.7 1.3-.9 2-.2-.8-.5-1.5-.9-2.2-1.4-2.7-3.7-4.5-6.2-5-.5 1.4-.7 2.9-.5 4.5-.3-.3-.7-.5-1-.7-2.5-1.6-5.3-1.9-7.8-1 .5 2.9 2.1 5.4 4.5 6.9.4.2.7.4 1.1.6-1.3.6-2.5 1.4-3.5 2.5 1.5 1.8 3.5 3 5.7 3.4 1.1 2.1 2.8 3.7 4.9 4.5.6 2.2 1.9 4.2 3.9 5.5.1 2.3 1.1 4.5 2.7 6.3-.3 2.4.2 4.7 1.4 6.8-.8 2.2-.8 4.7 0 6.9-1.2 2-1.7 4.4-1.3 6.8-1.6 1.7-2.5 3.9-2.6 6.3-1.9 1.3-3.2 3.3-3.8 5.6-2.1.9-3.8 2.5-4.8 4.6-2.2.4-4.2 1.6-5.6 3.4-2.5-.2-5.2.9-7.2 3-1.3 1.4-2.1 2.8-2.4 4-.6 2.3-3.7 2.3-4.3 0-.4-1.3-1.1-2.6-2.4-4-2-2.2-4.7-3.2-7.2-3-1.4-1.8-3.4-3-5.6-3.4-1-2.1-2.8-3.7-4.8-4.6-.6-2.3-2-4.3-3.8-5.6-.1-2.4-1.1-4.6-2.6-6.3.3-2.4-.2-4.7-1.3-6.8.8-2.3.8-4.8 0-6.9 1.2-2 1.7-4.4 1.4-6.8 1.6-1.7 2.5-3.9 2.7-6.3 1.9-1.3 3.2-3.3 3.9-5.5 2.1-.9 3.8-2.5 4.9-4.5 2.2-.4 4.3-1.6 5.7-3.4-1-1.1-2.1-2-3.5-2.5.4-.2.7-.4 1.1-.6 2.4-1.5 4-4 4.5-6.9-2.4-.8-5.3-.6-7.8 1-.3.2-.7.5-1 .7.2-1.5 0-3-.5-4.4-2.5.6-4.9 2.3-6.2 5-.4.8-.7 1.5-.9 2.2-.2-.7-.5-1.4-.9-2C19 8.8 17 11.1 16.2 14c-.2.8-.4 1.6-.4 2.3-.4-.6-.8-1.2-1.3-1.7-2.1 1.6-3.5 4.3-3.7 7.3-.1.9-.1 1.7 0 2.4-.5-.5-1-1-1.6-1.4-1.7 2.1-2.6 5-2.2 8 .1.9.3 1.6.5 2.3-.6-.4-1.2-.8-1.8-1-1.3 2.4-1.6 5.4-.6 8.3.3.8.6 1.5.9 2.2-.6-.3-1.3-.5-2-.6-.8 2.6-.4 5.7 1.1 8.3.4.7.9 1.4 1.3 1.9-.7-.1-1.4-.2-2.1-.1-.2 2.9.8 5.8 2.7 7.8.6.6 1.1 1.1 1.7 1.6-.7 0-1.4.1-2 .3.4 2.9 1.9 5.5 4.2 7.1.7.5 1.3.9 2 1.1-.7.2-1.3.4-1.9.8.9 2.7 2.9 4.9 5.5 6 .8.3 1.5.5 2.1.7-.6.3-1.2.7-1.7 1.2 1.4 2.5 3.8 4.1 6.5 4.6.8.1 1.5.2 2.2.2-.5.5-1 1-1.5 1.6 1.9 2.1 4.6 3.2 7.3 3 .8 0 1.6-.2 2.2-.3-.4.6-.8 1.2-1.1 1.8 2.1 1.5 4.9 2.1 7.7 1.3 1.3-.4 2.4-.9 3.3-1.5 2.7-2 6.4-2 9.1 0 .8.6 1.9 1.1 3.3 1.5 2.8.8 5.6.2 7.7-1.3-.3-.7-.7-1.3-1.1-1.8.7.2 1.4.3 2.2.3 2.7.2 5.4-.9 7.3-3-.4-.6-.9-1.1-1.5-1.6.7 0 1.4 0 2.2-.2 2.7-.5 5.1-2.1 6.5-4.6-.5-.5-1.1-.9-1.7-1.2.7-.1 1.4-.4 2.1-.7 2.6-1.1 4.6-3.2 5.5-6-.6-.3-1.3-.6-1.9-.8.6-.3 1.3-.7 2-1.1 2.3-1.6 3.8-4.2 4.2-7.1-.7-.2-1.4-.3-2-.3.6-.4 1.1-.9 1.7-1.6 1.9-2.1 2.9-4.9 2.7-7.8-1.3-.2-2-.1-2.7 0z" fill="#231f20"/></svg>